<svg width="46" height="46" viewBox="0 0 46 46" fill="none" xmlns="http://www.w3.org/2000/svg">
<path d="M23 44C34.598 44 44 34.598 44 23C44 11.402 34.598 2 23 2C11.402 2 2 11.402 2 23C2 34.598 11.402 44 23 44Z" fill="black" fill-opacity="0.2" stroke="white" stroke-width="3" stroke-miterlimit="10"/>
<path d="M18.4959 28.8296L10.3173 23.53C9.89424 23.2473 9.89424 22.7527 10.3173 22.47L18.4959 17.1704C19.1069 16.7818 20 17.0998 20 17.7004V28.2996C20 28.9002 19.1069 29.2182 18.4959 28.8296Z" fill="white"/>
<path d="M27.5056 28.8296L35.6828 23.53C36.1057 23.2473 36.1057 22.7527 35.6828 22.47L27.5056 17.1704C26.8946 16.7818 26.0017 17.0998 26.0017 17.7004V28.2996C25.9547 28.9002 26.8946 29.2182 27.5056 28.8296Z" fill="white"/>
</svg>
